<svg width="258" height="258" viewBox="0 0 258 258" fill="none" xmlns="http://www.w3.org/2000/svg">
<path fill-rule="evenodd" clip-rule="evenodd" d="M143.631 78.307L163.408 47H216.52V77.204H178.577V115.895H214.023V145.1H178.577V208.504H143.631V191.364L158.311 168.126L143.631 82.9197V78.307ZM102.199 47L122.6 79.2954L107.296 168.126L121.466 190.557C118.015 204.186 108.162 211 91.9087 211H62.9528C42.3176 211 32 200.017 32 178.05V157.831H65.1994V182.044C65.1994 183.375 65.6154 184.54 66.4475 185.539C67.446 186.537 68.6109 187.037 69.9422 187.037H83.172C84.5033 187.037 85.585 186.537 86.4171 185.539C87.4155 184.54 87.9148 183.375 87.9148 182.044V47H102.199Z" fill="#181A2A"/>
</svg>
